<?xml version="1.0" encoding="UTF-8" standalone="no"?>
<svg
   height="24px"
   viewBox="0 0 24 24"
   width="24px"
   fill="#000000"
   version="1.1"
   id="svg6"
   sodipodi:docname="diary.svg"
   inkscape:version="1.1.2 (0a00cf5339, 2022-02-04)"
   xmlns:inkscape="http://www.inkscape.org/namespaces/inkscape"
   xmlns:sodipodi="http://sodipodi.sourceforge.net/DTD/sodipodi-0.dtd"
   xmlns="http://www.w3.org/2000/svg"
   xmlns:svg="http://www.w3.org/2000/svg">
  <defs
     id="defs10" />
  <sodipodi:namedview
     id="namedview8"
     pagecolor="#ffffff"
     bordercolor="#666666"
     borderopacity="1.0"
     inkscape:pageshadow="2"
     inkscape:pageopacity="0.0"
     inkscape:pagecheckerboard="0"
     showgrid="false"
     inkscape:zoom="14.208333"
     inkscape:cx="-4.7859238"
     inkscape:cy="21.818182"
     inkscape:window-width="1920"
     inkscape:window-height="1012"
     inkscape:window-x="0"
     inkscape:window-y="0"
     inkscape:window-maximized="1"
     inkscape:current-layer="svg6" />
  <path
     d="M0 0h24v24H0z"
     fill="none"
     id="path2" />
  <path
     id="path4"
     d="M 6.2265625 2 L 6.2265625 22 L 18 22 C 19.1 22 20 21.1 20 20 L 20 4 C 20 2.9 19.1 2 18 2 L 6.2265625 2 z M 5.515625 2.0625 C 4.6478347 2.2806125 4 3.0670123 4 4 L 4 20 C 4 20.932988 4.6478347 21.719388 5.515625 21.9375 L 5.515625 2.0625 z M 12 5.9433594 C 13.393366 5.9433594 14.523437 7.075384 14.523438 8.46875 L 14.523438 9.4765625 L 15.029297 9.4765625 C 15.584624 9.4765625 16.039063 9.9310008 16.039062 10.486328 L 16.039062 15.535156 C 16.039063 16.090483 15.584624 16.544922 15.029297 16.544922 L 8.9707031 16.544922 C 8.4153761 16.544922 7.9609375 16.090483 7.9609375 15.535156 L 7.9609375 10.486328 C 7.9609375 9.9310008 8.4153761 9.4765625 8.9707031 9.4765625 L 9.4765625 9.4765625 L 9.4765625 8.46875 C 9.4765625 7.075384 10.606634 5.9433594 12 5.9433594 z M 12 6.9023438 C 11.136719 6.9023437 10.435547 7.605469 10.435547 8.46875 L 10.435547 9.4765625 L 13.564453 9.4765625 L 13.564453 8.46875 C 13.564453 7.605469 12.863281 6.9023438 12 6.9023438 z M 12 12.001953 C 11.444673 12.001953 10.990234 12.456392 10.990234 13.011719 C 10.990234 13.567046 11.444673 14.021484 12 14.021484 C 12.555327 14.021484 13.009766 13.567046 13.009766 13.011719 C 13.009766 12.456392 12.555327 12.001953 12 12.001953 z "
     style="fill:#ffffff" />
</svg>
